<mxfile host="app.diagrams.net" modified="2023-10-24T16:45:01.298Z" agent="Mozilla/5.0 (X11; Linux x86_64) AppleWebKit/537.36 (KHTML, like Gecko) Chrome/118.0.0.0 Safari/537.36" version="22.0.7" etag="fVjd-FTzHxJcm7SLMle6" type="github">
  <diagram name="Page-1" id="DCB5h-K1NhKGkjhSpJRu">
    <mxGraphModel>
      <root>
        <mxCell id="0" />
        <mxCell id="1" parent="0" />
      </root>
    </mxGraphModel>
  </diagram>
</mxfile>
